/* XPM */
static char * scrubby_xpm[] = {
"48 48 143 2",
"  	c None",
". 	c #FFFFFF",
"+ 	c #EBEBEB",
"@ 	c #D7D7D7",
"# 	c #C3C3C3",
"$ 	c #BFBFBF",
"% 	c #CDCDCD",
"& 	c #9B9B9B",
"* 	c #6A6A6A",
"= 	c #606060",
"- 	c #AFAFAF",
"; 	c #101010",
"> 	c #000000",
", 	c #181818",
"' 	c #363636",
") 	c #545454",
"! 	c #303030",
"~ 	c #6C6C6C",
"{ 	c #A7A7A7",
"] 	c #404040",
"^ 	c #8F8F8F",
"/ 	c #DFDFDF",
"( 	c #F9F9F9",
"_ 	c #EFEFEF",
": 	c #E5E5E5",
"< 	c #E3E3E3",
"[ 	c #EDEDED",
"} 	c #F7F7F7",
"| 	c #FEFFFE",
"1 	c #FAFEFA",
"2 	c #F6FDF6",
"3 	c #F2FCF2",
"4 	c #E7E7E7",
"5 	c #979797",
"6 	c #B7B7B7",
"7 	c #FCFEFC",
"8 	c #EBFBEB",
"9 	c #DBF7DB",
"0 	c #CAF4CA",
"a 	c #D5D5D5",
"b 	c #4A4A4A",
"c 	c #3C3C3C",
"d 	c #818181",
"e 	c #C7C7C7",
"f 	c #F9FEF9",
"g 	c #DDF7DD",
"h 	c #C0F1C0",
"i 	c #A3EBA3",
"j 	c #CFCFCF",
"k 	c #808080",
"l 	c #BDC2BD",
"m 	c #B0CFB0",
"n 	c #A3DBA3",
"o 	c #96E896",
"p 	c #0C0C0C",
"q 	c #2A2A2A",
"r 	c #484848",
"s 	c #636863",
"t 	c #749374",
"u 	c #85BD85",
"v 	c #090E09",
"w 	c #385738",
"x 	c #67A067",
"y 	c #383838",
"z 	c #7E7E7E",
"A 	c #B9BBB9",
"B 	c #797E79",
"C 	c #394139",
"D 	c #101910",
"E 	c #0B100B",
"F 	c #050705",
"G 	c #202020",
"H 	c #707070",
"I 	c #767D76",
"J 	c #657A65",
"K 	c #557655",
"L 	c #426642",
"M 	c #2A412A",
"N 	c #131D13",
"O 	c #080808",
"P 	c #121212",
"Q 	c #1C1C1C",
"R 	c #334033",
"S 	c #527552",
"T 	c #71AB71",
"U 	c #73B273",
"V 	c #4A724A",
"W 	c #213321",
"X 	c #878787",
"Y 	c #4C4C4C",
"Z 	c #1C2C1C",
"` 	c #4B744B",
" .	c #7ABC7A",
"..	c #88D288",
"+.	c #659C65",
"@.	c #2D452D",
"#.	c #507B50",
"$.	c #E1E1E1",
"%.	c #A5A5A5",
"&.	c #787878",
"*.	c #464646",
"=.	c #141414",
"-.	c #8FDD8F",
";.	c #7DC27D",
">.	c #6CA76C",
",.	c #619661",
"'.	c #84CD84",
").	c #121B12",
"!.	c #2F482F",
"~.	c #4C764C",
"{.	c #76B776",
"].	c #070B07",
"^.	c #1E2F1E",
"/.	c #345034",
"(.	c #578657",
"_.	c #1A1A1A",
":.	c #060606",
"<.	c #70AE70",
"[.	c #686868",
"}.	c #B5B5B5",
"|.	c #0E160E",
"1.	c #314C31",
"2.	c #548254",
"3.	c #7FC47F",
"4.	c #8AD68A",
"5.	c #192619",
"6.	c #3E603E",
"7.	c #5B8D5B",
"8.	c #79BB79",
"9.	c #F3F3F3",
"0.	c #CBCBCB",
"a.	c #0C0F0C",
"b.	c #475A47",
"c.	c #82A582",
"d.	c #BDF1BD",
"e.	c #0E100E",
"f.	c #565D56",
"g.	c #9DAB9D",
"h.	c #E5F9E5",
"i.	c #838383",
"j.	c #242424",
"k.	c #424242",
"l.	c #B9B9B9",
"              . . . . . . . . . . . . . . . . . . . . . . . . . . . . . . . . . . .             ",
"              . . . . . . . . . . . . . . . . . . . . . . . . . . . . . . . . . . .             ",
"              . . + @ # $ $ $ $ $ $ $ $ $ $ $ $ $ $ $ $ $ $ $ $ $ $ $ $ $ # @ + . .             ",
"              . . % & * = = = = = = = = = = = = = = = = = = = = = = = = = * & % . .             ",
"              . . - = ; > > > > > > > > > > > > > > > > > > > > > > > > > ; = - . .             ",
"              . . - = ; , ' ) = = = = = = = = = = = = = = = = = = = ) ' , ; = - . .             ",
"              . . - = ; ! ~ { $ $ $ $ $ $ $ $ $ $ $ $ $ $ $ $ $ $ $ { ~ ! ; = - . .             ",
"              . . - = ; ] ^ / ( _ : < [ } | 1 2 3 2 1 | } [ < : _ ( / ^ ] ; = - . .             ",
"              . . - = ; ] ^ / 4 $ 5 ^ 6 / 7 8 9 0 9 8 7 / 6 ^ 5 $ 4 / ^ ] ; = - . .             ",
"              . . - = ; ] ^ / a ^ b c d e f g h i h g f e d c b ^ a / ^ ] ; = - . .             ",
"              . . - = ; ] ^ / j k ! , ) ^ l m n o n m l ^ ) , ! k j / ^ ] ; = - . .             ",
"              . . - = ; ] ^ / j k ! p q r s t u o u t s r q p ! k j / ^ ] ; = - . .             ",
"              . . - = ; ] ^ / j k ! > > > v w x o x w v > > > ! k j / ^ ] ; = - . .             ",
"              . . - = ; ] ^ / j k ! > > > v w x o x w v > > > ! k j / ^ ] ; = - . .             ",
"              . . - = ; ] ^ / j k ! > > > v w x o x w v > > > ! k j / ^ ] ; = - . .             ",
"              . . - = ; y z # A B C D E F v w x o x w v F E D C B A # z y ; = - . .             ",
"              . . - = ; G r H I J K L M N v w x o x w v N M L K J I H r G ; = - . .             ",
"              . . - = ; O P Q R S T U V W v w x o x w v W V U T S R Q P O ; = - . .             ",
"              . . # X Y ! Q O Z `  ...+.L @.#.U o U #.@.L +... .` Z O Q ! Y X # . .             ",
"              . . $.# %.&.*.=.Z `  .-.;.>.,.U '.o '.U ,.>.;.-. .` Z =.*.&.%.# $.. .             ",
"              . . . . . $ H G Z `  .o o o o o o o o o o o o o  .` Z G H $ . . . . .             ",
"                . . . . $ H G ).!.~.+.{...o o o o o o o ..{.+.~.!.).G H $ . . . .               ",
"                    . . $ H G ].N ^./.(. .o o o o o o o  .(./.^.N ].G H $ . .                   ",
"                    . . e d c _.; :.N L <.o o o o o o o <.L N :.; _.c d e . .                   ",
"                    . . / 6 ^ [.] , N L <.o o o o o o o <.L N , ] [.^ 6 / . .                   ",
"                    . . } [ < }.H q N L <.o o o o o o o <.L N q H }.< [ } . .                   ",
"                      . . . . j k ! |.1.2.U 3.4.o 4.3.U 2.1.|.! k j . . . .                     ",
"                        . . . j k ! ].5.M 6.7.8.o 8.7.6.M 5.].! k j . . .                       ",
"                          . . j k ! > > > v w x o x w v > > > ! k j . .                         ",
"                          . . $.- z ) ' , v w x o x w v , ' ) z - $.. .                         ",
"                          . . 9./ 0.{ ~ ! v w x o x w v ! ~ { 0./ 9.. .                         ",
"                            . . . . / ^ ] v w x o x w v ] ^ / . . . .                           ",
"                              . . . / ^ ] v w x o x w v ] ^ / . . .                             ",
"                                . . / ^ ] v w x o x w v ] ^ / . .                               ",
"                                . . / ^ ] v w x o x w v ] ^ / . .                               ",
"                                . . / ^ ] v w x o x w v ] ^ / . .                               ",
"                                . . / ^ ] v w x o x w v ] ^ / . .                               ",
"                                . . / ^ ] a.b.c.d.c.b.a.] ^ / . .                               ",
"                                . . / ^ ] e.f.g.h.g.f.e.] ^ / . .                               ",
"                                . . / ^ ] ; = - . - = ; ] ^ / . .                               ",
"                                . . / ^ ] ; = - . - = ; ] ^ / . .                               ",
"                                . . / ^ ] ; = - . - = ; ] ^ / . .                               ",
"                                . . / ^ ] p r i.$ i.r p ] ^ / . .                               ",
"                                . . / ^ ] :.j.k.= k.j.:.] ^ / . .                               ",
"                                . . / ^ ] > > > > > > > ] ^ / . .                               ",
"                                . . + l.X = = = = = = = X l.+ . .                               ",
"                                . . } < j $ $ $ $ $ $ $ j < } . .                               ",
"                                . . . . . . . . . . . . . . . . .                               "};
