/* XPM */
static char * palette_image_xpm[] = {
"50 70 35 1",
"a 	c #BF0909",
"b	c #BF6409",
"c	c #BFBF09",
"d	c #09BF09",
"e	c #0964BF",
"f	c #BF0964",
"g	c #0909BF",
"h	c #6409BF",
"i	c #BF09BF",
"j	c #BF0964",
"k	c #FF8056",
"l	c #FFD456",
"m	c #D4FF56",
"n	c #56FF80",
"o	c #56D4FF",
"p	c #5680FF",
"q	c #8056FF",
"r	c #D456FF",
"s	c #FF56D4",
"t	c #FF5680",
"u	c #7F3F3F",
"v	c #7F7F3F",
"w	c #3F7F3F",
"x	c #3F7F7F",
"y	c #3F3F7F",
"z	c #7F3F7F",
"0	c #00FFFF",
"1	c #56FF80",
"2	c #FFD456",
"3	c #09BF09",
"4	c #CBFF00",
"5	c #0000FF",
"6	c #00FF00",
"7	c #FF00FF",
"8	c #FF0000",
"aaaaaaaaabbbbbbbbbbcccccccccccddddddddddeeeeeeeeee",
"aaaaaaaaaabbbbbbbbbbccccccccccddddddddddeeeeeeeeee",
"aaaaaaaaaabbbbbbbbbbccccccccccddddddddddeeeeeeeeee",
"aaaaaaaaaabbbbbbbbbbccccccccccddddddddddeeeeeeeeee",
"aaaaaaaaaabbbbbbbbbbccccccccccddddddddddeeeeeeeeee",
"aaaaaaaaaabbbbbbbbbbccccccccccddddddddddeeeeeeeeee",
"aaaaaaaaaabbbbbbbbbbccccccccccddddddddddeeeeeeeeee",
"aaaaaaaaaabbbbbbbbbbccccccccccddddddddddeeeeeeeeee",
"aaaaaaaaaabbbbbbbbbbccccccccccddddddddddeeeeeeeeee",
"aaaaaaaaaabbbbbbbbbbccccccccccddddddddddeeeeeeeeee",
"ffffffffffgggggggggghhhhhhhhhhiiiiiiiiiijjjjjjjjjj",
"ffffffffffgggggggggghhhhhhhhhhiiiiiiiiiijjjjjjjjjj",
"ffffffffffgggggggggghhhhhhhhhhiiiiiiiiiijjjjjjjjjj",
"ffffffffffgggggggggghhhhhhhhhhiiiiiiiiiijjjjjjjjjj",
"ffffffffffgggggggggghhhhhhhhhhiiiiiiiiiijjjjjjjjjj",
"ffffffffffgggggggggghhhhhhhhhhiiiiiiiiiijjjjjjjjjj",
"ffffffffffgggggggggghhhhhhhhhhiiiiiiiiiijjjjjjjjjj",
"ffffffffffgggggggggghhhhhhhhhhiiiiiiiiiijjjjjjjjjj",
"ffffffffffgggggggggghhhhhhhhhhiiiiiiiiiijjjjjjjjjj",
"ffffffffffgggggggggghhhhhhhhhhiiiiiiiiiijjjjjjjjjj",
"kkkkkkkkkkllllllllllmmmmmmmmmmnnnnnnnnnnoooooooooo",
"kkkkkkkkkkllllllllllmmmmmmmmmmnnnnnnnnnnoooooooooo",
"kkkkkkkkkkllllllllllmmmmmmmmmmnnnnnnnnnnoooooooooo",
"kkkkkkkkkkllllllllllmmmmmmmmmmnnnnnnnnnnoooooooooo",
"kkkkkkkkkkllllllllllmmmmmmmmmmnnnnnnnnnnoooooooooo",
"kkkkkkkkkkllllllllllmmmmmmmmmmnnnnnnnnnnoooooooooo",
"kkkkkkkkkkllllllllllmmmmmmmmmmnnnnnnnnnnoooooooooo",
"kkkkkkkkkkllllllllllmmmmmmmmmmnnnnnnnnnnoooooooooo",
"kkkkkkkkkkllllllllllmmmmmmmmmmnnnnnnnnnnoooooooooo",
"kkkkkkkkkkllllllllllmmmmmmmmmmnnnnnnnnnnoooooooooo",
"ppppppppppqqqqqqqqqqrrrrrrrrrrsssssssssstttttttttt",
"ppppppppppqqqqqqqqqqrrrrrrrrrrsssssssssstttttttttt",
"ppppppppppqqqqqqqqqqrrrrrrrrrrsssssssssstttttttttt",
"ppppppppppqqqqqqqqqqrrrrrrrrrrsssssssssstttttttttt",
"ppppppppppqqqqqqqqqqrrrrrrrrrrsssssssssstttttttttt",
"ppppppppppqqqqqqqqqqrrrrrrrrrrsssssssssstttttttttt",
"ppppppppppqqqqqqqqqqrrrrrrrrrrsssssssssstttttttttt",
"ppppppppppqqqqqqqqqqrrrrrrrrrrsssssssssstttttttttt",
"ppppppppppqqqqqqqqqqrrrrrrrrrrsssssssssstttttttttt",
"ppppppppppqqqqqqqqqqrrrrrrrrrrsssssssssstttttttttt",
"uuuuuuuuuuvvvvvvvvvvwwwwwwwwwwxxxxxxxxxxyyyyyyyyyy",
"uuuuuuuuuuvvvvvvvvvvwwwwwwwwwwxxxxxxxxxxyyyyyyyyyy",
"uuuuuuuuuuvvvvvvvvvvwwwwwwwwwwxxxxxxxxxxyyyyyyyyyy",
"uuuuuuuuuuvvvvvvvvvvwwwwwwwwwwxxxxxxxxxxyyyyyyyyyy",
"uuuuuuuuuuvvvvvvvvvvwwwwwwwwwwxxxxxxxxxxyyyyyyyyyy",
"uuuuuuuuuuvvvvvvvvvvwwwwwwwwwwxxxxxxxxxxyyyyyyyyyy",
"uuuuuuuuuuvvvvvvvvvvwwwwwwwwwwxxxxxxxxxxyyyyyyyyyy",
"uuuuuuuuuuvvvvvvvvvvwwwwwwwwwwxxxxxxxxxxyyyyyyyyyy",
"uuuuuuuuuuvvvvvvvvvvwwwwwwwwwwxxxxxxxxxxyyyyyyyyyy",
"uuuuuuuuuuvvvvvvvvvvwwwwwwwwwwxxxxxxxxxxyyyyyyyyyy",
"zzzzzzzzzz0000000000111111111122222222223333333333",
"zzzzzzzzzz0000000000111111111122222222223333333333",
"zzzzzzzzzz0000000000111111111122222222223333333333",
"zzzzzzzzzz0000000000111111111122222222223333333333",
"zzzzzzzzzz0000000000111111111122222222223333333333",
"zzzzzzzzzz0000000000111111111122222222223333333333",
"zzzzzzzzzz0000000000111111111122222222223333333333",
"zzzzzzzzzz0000000000111111111122222222223333333333",
"zzzzzzzzzz0000000000111111111122222222223333333333",
"zzzzzzzzzz0000000000111111111122222222223333333333",
"44444444445555555555666666666677777777777888888888",
"44444444445555555555666666666677777777777888888888",
"44444444445555555555666666666677777777777888888888",
"44444444445555555555666666666677777777777888888888",
"44444444445555555555666666666677777777777888888888",
"44444444445555555555666666666677777777777888888888",
"44444444445555555555666666666677777777777888888888",
"44444444445555555555666666666677777777777888888888",
"44444444445555555555666666666677777777777888888888",
"44444444445555555555666666666677777777777888888888"};
