/* XPM */
static char * palette_gimped_xpm[] = {
"50 70 32 1",
" 	c None",
".	c #0000FF",
"+	c #0909BF",
"@	c #6409BF",
"#	c #BF0909",
"$	c #FF0000",
"%	c #BF0964",
"&	c #BF09BF",
"*	c #3F3F7F",
"=	c #FF00FF",
"-	c #7F3F3F",
";	c #7F3F7F",
">	c #0964BF",
",	c #8056FF",
"'	c #3F7F3F",
")	c #BF6409",
"!	c #3F7F7F",
"~	c #7F7F3F",
"{	c #FF5680",
"]	c #D456FF",
"^	c #5680FF",
"/	c #FF56D4",
"(	c #09BF09",
"_	c #FF8056",
":	c #BFBF09",
"<	c #00FF00",
"[	c #56D4FF",
"}	c #00FFFF",
"|	c #56FF80",
"1	c #FFD456",
"2	c #CBFF00",
"3	c #D4FF56",
"#########)))))))))):::::::::::((((((((((>>>>>>>>>>",
"##########))))))))))::::::::::((((((((((>>>>>>>>>>",
"##########))))))))))::::::::::((((((((((>>>>>>>>>>",
"##########))))))))))::::::::::((((((((((>>>>>>>>>>",
"##########))))))))))::::::::::((((((((((>>>>>>>>>>",
"##########))))))))))::::::::::((((((((((>>>>>>>>>>",
"##########))))))))))::::::::::((((((((((>>>>>>>>>>",
"##########))))))))))::::::::::((((((((((>>>>>>>>>>",
"##########))))))))))::::::::::((((((((((>>>>>>>>>>",
"##########))))))))))::::::::::((((((((((>>>>>>>>>>",
"%%%%%%%%%%++++++++++@@@@@@@@@@&&&&&&&&&&%%%%%%%%%%",
"%%%%%%%%%%++++++++++@@@@@@@@@@&&&&&&&&&&%%%%%%%%%%",
"%%%%%%%%%%++++++++++@@@@@@@@@@&&&&&&&&&&%%%%%%%%%%",
"%%%%%%%%%%++++++++++@@@@@@@@@@&&&&&&&&&&%%%%%%%%%%",
"%%%%%%%%%%++++++++++@@@@@@@@@@&&&&&&&&&&%%%%%%%%%%",
"%%%%%%%%%%++++++++++@@@@@@@@@@&&&&&&&&&&%%%%%%%%%%",
"%%%%%%%%%%++++++++++@@@@@@@@@@&&&&&&&&&&%%%%%%%%%%",
"%%%%%%%%%%++++++++++@@@@@@@@@@&&&&&&&&&&%%%%%%%%%%",
"%%%%%%%%%%++++++++++@@@@@@@@@@&&&&&&&&&&%%%%%%%%%%",
"%%%%%%%%%%++++++++++@@@@@@@@@@&&&&&&&&&&%%%%%%%%%%",
"__________11111111113333333333||||||||||[[[[[[[[[[",
"__________11111111113333333333||||||||||[[[[[[[[[[",
"__________11111111113333333333||||||||||[[[[[[[[[[",
"__________11111111113333333333||||||||||[[[[[[[[[[",
"__________11111111113333333333||||||||||[[[[[[[[[[",
"__________11111111113333333333||||||||||[[[[[[[[[[",
"__________11111111113333333333||||||||||[[[[[[[[[[",
"__________11111111113333333333||||||||||[[[[[[[[[[",
"__________11111111113333333333||||||||||[[[[[[[[[[",
"__________11111111113333333333||||||||||[[[[[[[[[[",
"^^^^^^^^^^,,,,,,,,,,]]]]]]]]]]//////////{{{{{{{{{{",
"^^^^^^^^^^,,,,,,,,,,]]]]]]]]]]//////////{{{{{{{{{{",
"^^^^^^^^^^,,,,,,,,,,]]]]]]]]]]//////////{{{{{{{{{{",
"^^^^^^^^^^,,,,,,,,,,]]]]]]]]]]//////////{{{{{{{{{{",
"^^^^^^^^^^,,,,,,,,,,]]]]]]]]]]//////////{{{{{{{{{{",
"^^^^^^^^^^,,,,,,,,,,]]]]]]]]]]//////////{{{{{{{{{{",
"^^^^^^^^^^,,,,,,,,,,]]]]]]]]]]//////////{{{{{{{{{{",
"^^^^^^^^^^,,,,,,,,,,]]]]]]]]]]//////////{{{{{{{{{{",
"^^^^^^^^^^,,,,,,,,,,]]]]]]]]]]//////////{{{{{{{{{{",
"^^^^^^^^^^,,,,,,,,,,]]]]]]]]]]//////////{{{{{{{{{{",
"----------~~~~~~~~~~''''''''''!!!!!!!!!!**********",
"----------~~~~~~~~~~''''''''''!!!!!!!!!!**********",
"----------~~~~~~~~~~''''''''''!!!!!!!!!!**********",
"----------~~~~~~~~~~''''''''''!!!!!!!!!!**********",
"----------~~~~~~~~~~''''''''''!!!!!!!!!!**********",
"----------~~~~~~~~~~''''''''''!!!!!!!!!!**********",
"----------~~~~~~~~~~''''''''''!!!!!!!!!!**********",
"----------~~~~~~~~~~''''''''''!!!!!!!!!!**********",
"----------~~~~~~~~~~''''''''''!!!!!!!!!!**********",
"----------~~~~~~~~~~''''''''''!!!!!!!!!!**********",
";;;;;;;;;;}}}}}}}}}}||||||||||1111111111((((((((((",
";;;;;;;;;;}}}}}}}}}}||||||||||1111111111((((((((((",
";;;;;;;;;;}}}}}}}}}}||||||||||1111111111((((((((((",
";;;;;;;;;;}}}}}}}}}}||||||||||1111111111((((((((((",
";;;;;;;;;;}}}}}}}}}}||||||||||1111111111((((((((((",
";;;;;;;;;;}}}}}}}}}}||||||||||1111111111((((((((((",
";;;;;;;;;;}}}}}}}}}}||||||||||1111111111((((((((((",
";;;;;;;;;;}}}}}}}}}}||||||||||1111111111((((((((((",
";;;;;;;;;;}}}}}}}}}}||||||||||1111111111((((((((((",
";;;;;;;;;;}}}}}}}}}}||||||||||1111111111((((((((((",
"2222222222..........<<<<<<<<<<===========$$$$$$$$$",
"2222222222..........<<<<<<<<<<===========$$$$$$$$$",
"2222222222..........<<<<<<<<<<===========$$$$$$$$$",
"2222222222..........<<<<<<<<<<===========$$$$$$$$$",
"2222222222..........<<<<<<<<<<===========$$$$$$$$$",
"2222222222..........<<<<<<<<<<===========$$$$$$$$$",
"2222222222..........<<<<<<<<<<===========$$$$$$$$$",
"2222222222..........<<<<<<<<<<===========$$$$$$$$$",
"2222222222..........<<<<<<<<<<===========$$$$$$$$$",
"2222222222..........<<<<<<<<<<===========$$$$$$$$$"};
